<svg viewBox="0 0 50 17" fill="none" xmlns="http://www.w3.org/2000/svg">
    <path d="M14.3492 12.179C14.3492 12.3872 14.2017 12.6388 14.0195 12.743L7.65076 16.4219C7.46854 16.526 7.17353 16.526 6.99132 16.4219L0.622556 12.743C0.440343 12.6388 0.292839 12.3872 0.292839 12.179V4.82104C0.292839 4.6128 0.440343 4.36117 0.622556 4.25705L6.99132 0.578091C7.17353 0.47397 7.46854 0.47397 7.65076 0.578091L14.0195 4.25705C14.2017 4.36117 14.3492 4.6128 14.3492 4.82104V12.179Z" fill="white"/>
    <path d="M49.7072 5.35032H44.0065V6.71258H46.0542V12.5347H47.6681V6.71258H49.7072V5.35032Z" fill="white"/>
    <path d="M23.8069 5.35032H18.0976V6.71258H20.1453V12.5347H21.7592V6.71258H23.8069V5.35032Z" fill="white"/>
    <path d="M40.3102 5.12473C38.5141 5.12473 37.5163 6.27007 37.5163 7.92733V12.5347H39.1128V7.89263C39.1128 7.17245 39.538 6.61714 40.3275 6.61714C41.1171 6.61714 41.5336 7.27657 41.5336 7.89263V12.5347H43.1301V7.92733C43.1388 6.27007 42.1063 5.12473 40.3102 5.12473Z" fill="white"/>
    <path d="M34.2885 5.35032V12.5347H35.885V5.35032H34.2885Z" fill="white"/>
    <path d="M28.8742 8.19631L28.9262 8.51735L30.4273 12.5347H31.0781L33.1171 5.35032H31.5466L30.5748 9.12473L30.5141 9.53254L30.436 9.12473L29.1345 5.35032H28.6139L27.3124 9.12473L27.2343 9.53254L27.1822 9.12473L26.2104 5.35032H24.6312L26.6703 12.5347H27.321L28.8221 8.51735L28.8742 8.19631Z" fill="white"/>
    <path d="M10.6442 8.51735L8.9783 10.9555L8.12798 9.65401L9.10846 8.18764C9.29067 7.92733 9.68113 7.20716 9.22993 6.22668C8.86551 5.42842 8.07592 5.04664 7.38178 5.04664C6.68763 5.04664 5.93275 5.40239 5.52494 6.22668C5.06507 7.17245 5.4642 7.90998 5.63774 8.1616C5.63774 8.1616 6.18438 8.95987 6.63557 9.63666L7.3731 10.7039L8.48373 12.4046C8.4924 12.4132 8.66594 12.6822 8.9783 12.6822C9.27332 12.6822 9.45553 12.4132 9.48156 12.3872L12.0846 8.53471H10.6442V8.51735ZM7.3731 8.57809C7.3731 8.57809 6.93926 7.91866 6.65292 7.45879C6.34924 6.96421 6.68763 6.22668 7.3731 6.22668C8.05857 6.22668 8.39696 6.96421 8.09327 7.45879C7.81562 7.91866 7.3731 8.57809 7.3731 8.57809Z" fill="url(#paint0_radial_1_806)"/>
    <path d="M5.77657 10.8774L4.14533 8.58677C4.14533 8.58677 3.71149 7.92733 3.42516 7.46746C3.12147 6.97288 3.45987 6.23536 4.14533 6.23536C4.2321 6.23536 4.31019 6.24403 4.38828 6.27007L4.96095 5.22017C4.70065 5.10737 4.41431 5.04664 4.15401 5.04664C3.45987 5.04664 2.70499 5.40239 2.29718 6.22668C1.83731 7.17245 2.23644 7.90998 2.40997 8.1616L5.26464 12.3872C5.29067 12.4219 5.47288 12.6909 5.77657 12.6909C6.08026 12.6909 6.25379 12.4306 6.27982 12.3959L7.13883 11.0857L6.4013 10.0011L5.77657 10.8774Z" fill="url(#paint1_radial_1_806)"/>
    <defs>
        <radialGradient id="paint0_radial_1_806" cx="0" cy="0" r="1" gradientUnits="userSpaceOnUse" gradientTransform="translate(11.3866 1.90158) scale(55.98 16.0793)">
            <stop stop-color="#FFCC00"/>
            <stop offset="0.0915684" stop-color="#FFC800"/>
            <stop offset="0.1739" stop-color="#FFBD00"/>
            <stop offset="0.2528" stop-color="#FFAB00"/>
            <stop offset="0.3295" stop-color="#FF9100"/>
            <stop offset="0.4046" stop-color="#FF7000"/>
            <stop offset="0.4786" stop-color="#FF4700"/>
            <stop offset="0.5503" stop-color="#FF1800"/>
            <stop offset="0.5822" stop-color="#FF0000"/>
            <stop offset="1" stop-color="#FF0000"/>
        </radialGradient>
        <radialGradient id="paint1_radial_1_806" cx="0" cy="0" r="1" gradientUnits="userSpaceOnUse" gradientTransform="translate(2.20627 6.15699) scale(7.0359)">
            <stop stop-color="#00B4E6"/>
            <stop offset="0.201" stop-color="#00B0E3"/>
            <stop offset="0.3898" stop-color="#01A5DB"/>
            <stop offset="0.5737" stop-color="#0292CD"/>
            <stop offset="0.7546" stop-color="#0377BA"/>
            <stop offset="0.9316" stop-color="#0455A1"/>
            <stop offset="1" stop-color="#054696"/>
        </radialGradient>
    </defs>
</svg>
