<svg width="70" height="33" viewBox="0 0 70 33" fill="none" xmlns="http://www.w3.org/2000/svg">
<rect x="0.5" y="0.5" width="69" height="32" rx="6" fill="white"/>
<path d="M58.0963 25.5H11.9119C11.5449 25.5 11.2529 25.2081 11.2529 24.8411V8.15894C11.2529 7.79194 11.5449 7.5 11.9119 7.5H58.088C58.455 7.5 58.7469 7.79194 58.7469 8.15894V24.8411C58.7552 25.2081 58.455 25.5 58.0963 25.5Z" fill="black"/>
<path d="M26.0333 19.5945C26.0333 19.7697 25.9082 19.9866 25.758 20.07L20.3947 23.1645C20.2446 23.2563 19.9944 23.2563 19.8442 23.1645L14.4809 20.07C14.3308 19.9782 14.2057 19.7697 14.2057 19.5945V13.3971C14.2057 13.222 14.3308 13.0051 14.4809 12.9217L19.8442 9.82715C19.9944 9.7354 20.2446 9.7354 20.3947 9.82715L25.758 12.9217C25.9082 13.0134 26.0333 13.222 26.0333 13.3971V19.5945Z" fill="white"/>
<path d="M55.8109 13.8475H51.0064V14.9903H52.7247V19.8948H54.0843V14.9903H55.8109V13.8475Z" fill="white"/>
<path d="M33.9906 13.8475H29.1862V14.9903H30.9128V19.8948H32.2724V14.9903H33.9906V13.8475Z" fill="white"/>
<path d="M47.8952 13.6557C46.3855 13.6557 45.543 14.6233 45.543 16.0162V19.8948H46.8859V15.9829C46.8859 15.374 47.2446 14.9069 47.9119 14.9069C48.5708 14.9069 48.9295 15.4574 48.9295 15.9829V19.8948H50.2724V16.0162C50.2724 14.6233 49.4049 13.6557 47.8952 13.6557Z" fill="white"/>
<path d="M42.8155 13.8475V19.8948H44.1667V13.8475H42.8155Z" fill="white"/>
<path d="M38.2613 16.2498L38.3113 16.5167L39.5708 19.8948H40.1213L41.8396 13.8475H40.5134L39.6876 17.0255L39.6459 17.3675L39.5792 17.0255L38.4781 13.8475H38.0444L36.9517 17.0255L36.885 17.3675L36.835 17.0255L36.0175 13.8475H34.6913L36.4096 19.8948H36.9601L38.2196 16.5167L38.2613 16.2498Z" fill="white"/>
<path d="M22.9054 16.5167L21.5124 18.5686L20.7951 17.4676L21.6209 16.2331C21.771 16.0162 22.1046 15.4073 21.721 14.5816C21.4123 13.9143 20.7451 13.589 20.1612 13.589C19.5773 13.589 18.935 13.8892 18.6014 14.5816C18.2177 15.374 18.5514 15.9995 18.6932 16.2081C18.6932 16.2081 19.1519 16.8837 19.5356 17.4509L20.1612 18.3517L21.0954 19.778C21.1037 19.7864 21.2539 20.0116 21.5124 20.0116C21.7627 20.0116 21.9128 19.7864 21.9378 19.7614L24.1315 16.5167H22.9054ZM20.1612 16.5667C20.1612 16.5667 19.7942 16.0079 19.5606 15.6242C19.302 15.2071 19.594 14.5899 20.1612 14.5899C20.7367 14.5899 21.0203 15.2071 20.7617 15.6242C20.5282 16.0162 20.1612 16.5667 20.1612 16.5667Z" fill="url(#paint0_radial_1_807)"/>
<path d="M18.8099 18.5019L17.4337 16.5751C17.4337 16.5751 17.0666 16.0162 16.8331 15.6325C16.5745 15.2155 16.8665 14.5982 17.4337 14.5982C17.5087 14.5982 17.5755 14.6066 17.6338 14.6233L18.1176 13.7391C17.8924 13.6474 17.6589 13.5973 17.4337 13.5973C16.8498 13.5973 16.2075 13.8976 15.8739 14.5899C15.4902 15.3823 15.8238 16.0079 15.9656 16.2164L18.3679 19.778C18.3845 19.8114 18.543 20.0366 18.7932 20.0366C19.0518 20.0366 19.1936 19.8197 19.2186 19.7864L19.9443 18.6854L19.3187 17.7678L18.8099 18.5019Z" fill="url(#paint1_radial_1_807)"/>
<defs>
<radialGradient id="paint0_radial_1_807" cx="0" cy="0" r="1" gradientUnits="userSpaceOnUse" gradientTransform="translate(21.8713 9.08596) scale(53.7643 18.1106)">
<stop stop-color="#FFCC00"/>
<stop offset="0.0915684" stop-color="#FFC800"/>
<stop offset="0.1739" stop-color="#FFBD00"/>
<stop offset="0.2528" stop-color="#FFAB00"/>
<stop offset="0.3295" stop-color="#FF9100"/>
<stop offset="0.4046" stop-color="#FF7000"/>
<stop offset="0.4786" stop-color="#FF4700"/>
<stop offset="0.5503" stop-color="#FF1800"/>
<stop offset="0.5822" stop-color="#FF0000"/>
<stop offset="1" stop-color="#FF0000"/>
</radialGradient>
<radialGradient id="paint1_radial_1_807" cx="0" cy="0" r="1" gradientUnits="userSpaceOnUse" gradientTransform="translate(15.804 14.5266) scale(5.92518)">
<stop stop-color="#00B4E6"/>
<stop offset="0.201" stop-color="#00B0E3"/>
<stop offset="0.3898" stop-color="#01A5DB"/>
<stop offset="0.5737" stop-color="#0292CD"/>
<stop offset="0.7546" stop-color="#0377BA"/>
<stop offset="0.9316" stop-color="#0455A1"/>
<stop offset="1" stop-color="#054696"/>
</radialGradient>
</defs>
</svg>
